<?xml version="1.0" encoding="utf-8"?>
<!-- Generator: Adobe Illustrator 28.1.0, SVG Export Plug-In . SVG Version: 6.00 Build 0)  -->
<svg version="1.1" id="Capa_1" xmlns="http://www.w3.org/2000/svg" xmlns:xlink="http://www.w3.org/1999/xlink" x="0px" y="0px"
	 viewBox="0 0 50 49" style="enable-background:new 0 0 50 49;" xml:space="preserve">
<style type="text/css">
	.st0{fill:#BD2C68;}
</style>
<g>
	<path class="st0" d="M4.7,7.8C-7.1,16.5,12.4,38.2,23.6,48c10.9-10.1,30.9-33,24-43.6c-6.9-10.6-18.9,5.7-24,15.2
		C22.2,12,16.4-0.9,4.7,7.8z"/>
	<path d="M23.6,49l-0.5-0.4C14.4,41-0.2,25.4,0.3,14.7c0.1-3.1,1.4-5.6,3.9-7.5c4-2.9,7.6-3.8,10.9-2.5c4.6,1.8,7.5,7.7,8.8,12.8
		c2.8-4.8,10.7-17,18-17.3c2.5-0.1,4.6,1.2,6.3,3.8c3.2,4.9,1.4,12.6-5.4,22.8C36,37.2,26.8,46.1,24.1,48.5L23.6,49z M12,5.6
		c-2.1,0-4.4,0.9-6.9,2.8l0,0C3,10,1.9,12.1,1.8,14.7C1.4,24.7,15,39.5,23.6,47C36.4,34.9,52.9,14.1,47,4.9c-1.4-2.2-3-3.2-5-3.1
		C35.7,2,27.9,13.3,24.2,20l-1,1.9l-0.4-2.1c-1-5.2-3.7-11.8-8.3-13.6C13.7,5.8,12.9,5.6,12,5.6z"/>
</g>
</svg>
