<?xml version="1.0" encoding="utf-8"?>
<!-- Generator: Adobe Illustrator 28.1.0, SVG Export Plug-In . SVG Version: 6.00 Build 0)  -->
<svg version="1.1" id="Capa_1" xmlns="http://www.w3.org/2000/svg" xmlns:xlink="http://www.w3.org/1999/xlink" x="0px" y="0px"
	 viewBox="0 0 40 44" style="enable-background:new 0 0 40 44;" xml:space="preserve">
<style type="text/css">
	.st0{fill:#BD2C68;}
</style>
<g>
	<path class="st0" d="M2.8,2.5c-6.5,4.1,6,30.7,17.7,40.5C32.1,36.4,45,7.8,36,2.2c-7.2-4.5-16.1,5.4-19.6,10.9
		C13.1,4.2,9.3-1.6,2.8,2.5z"/>
	<path d="M20.4,43.9L20,43.6c-9.8-8.1-20.4-28-19.8-37.3c0.1-2.1,0.9-3.6,2.1-4.4c2.3-1.4,4.4-1.8,6.3-1.2c3.6,1.2,6,5.9,7.9,10.7
		c4.2-6,12.8-14.4,19.8-9.9c2.3,1.4,3.4,4.3,3.3,8.3C39.5,21,29.6,38.7,20.9,43.7L20.4,43.9z M6.8,1.9c-1.1,0-2.3,0.4-3.6,1.3
		C2.4,3.7,1.9,4.8,1.8,6.4C1.2,15,11.3,34.1,20.6,42.1C28.8,37,38,20.4,38.2,9.8c0.1-3.5-0.8-5.8-2.6-7C29-1.4,20.6,8,17,13.5
		l-0.8,1.3l-0.5-1.4C14,8.7,11.6,3.3,8.2,2.1C7.8,2,7.3,1.9,6.8,1.9z"/>
</g>
</svg>
