<?xml version="1.0" encoding="utf-8"?>
<!-- Generator: Adobe Illustrator 28.1.0, SVG Export Plug-In . SVG Version: 6.00 Build 0)  -->
<svg version="1.1" id="Capa_1" xmlns="http://www.w3.org/2000/svg" xmlns:xlink="http://www.w3.org/1999/xlink" x="0px" y="0px"
	 viewBox="0 0 41 57" style="enable-background:new 0 0 41 57;" xml:space="preserve">
<style type="text/css">
	.st0{fill:#BD2C68;}
	.st1{fill:#FFFFFF;}
</style>
<g>
	<path class="st0" d="M24.1,56.2C24.1,56.2,24.1,56.2,24.1,56.2c-0.1,0-0.1,0-0.2,0h0c-0.1,0-0.1,0-0.2-0.1l0,0
		c-0.1,0-0.1-0.1-0.1-0.1c0,0-0.1-0.1-0.1-0.3c-0.1-0.4-0.2-1.2,0-2.7l0-0.4l-0.4-0.3C5.7,39.9,1.4,31.9,0.8,27.5
		c-0.3-2.4,0.4-3.9,1.1-4.6c0.4-0.5,1-0.8,1.8-0.9c0.7,0,1.6,0.2,2.6,0.6c1,0.4,2.1,1,3.1,1.7c2.1,1.4,4.1,3,5.4,4.2l1,0.9l0.2-1.3
		C17.8,18.5,22,6.9,31.8,1.5l0,0l0.1-0.1c0,0,0,0,0,0c1.1-0.6,3.4-1.2,5.4,0.1C38.6,2.4,39.5,4,40,6.4c0.4,2.4,0.4,5.6-0.2,9.5l0,0
		c-1.2,7.7-4.7,17.6-8.1,25.7c-1.7,4.1-3.5,7.7-4.8,10.3c-0.7,1.3-1.3,2.4-1.8,3.1c-0.2,0.4-0.5,0.7-0.6,0.9
		C24.2,56.1,24.1,56.2,24.1,56.2z"/>
	<path class="st1" d="M23.9,57c-0.3,0-0.4-0.1-0.6-0.2l-0.1,0c-0.1-0.1-0.2-0.1-0.3-0.2c-0.1-0.2-0.2-0.3-0.3-0.6
		c-0.2-0.6-0.2-1.6,0-3l0,0C5.2,40.5,0.7,32.3,0.1,27.6c-0.4-2.6,0.5-4.3,1.2-5.2c0.6-0.7,1.4-1.1,2.3-1.1c0.8-0.1,1.8,0.2,3,0.6
		c1,0.4,2.1,1,3.3,1.7c2.2,1.4,4.2,3.1,5.5,4.2l0,0c1.7-9.2,5.9-21.3,16.1-27l0.1-0.1c1.2-0.7,3.9-1.4,6.1,0.2c1.5,1,2.5,2.8,3,5.4
		c0.5,2.5,0.4,5.8-0.2,9.8c-1.4,9-5.7,20.1-8.2,25.9c-1.6,3.8-3.4,7.5-4.9,10.3c-0.7,1.3-1.3,2.4-1.8,3.2c-0.3,0.4-0.5,0.7-0.7,0.9
		c0,0,0,0-0.1,0.1l0,0.2l-0.4,0.2C24.3,57,24.1,57,23.9,57z M3.9,22.8c-0.1,0-0.1,0-0.2,0c-0.5,0-0.9,0.2-1.2,0.6
		c-0.6,0.7-1.2,2-0.9,4.1c0.5,3.6,4,11.5,22,24.4l0.7,0.5l-0.1,0.9c-0.1,0.8-0.1,1.4-0.1,1.8c0.1-0.1,0.1-0.2,0.2-0.3
		c0.5-0.7,1.1-1.8,1.8-3.1c1.5-2.8,3.2-6.4,4.8-10.2c2.5-5.7,6.8-16.7,8.1-25.5c0.6-3.8,0.6-6.9,0.2-9.3C38.8,4.4,38,3,36.9,2.2
		c-1.7-1.1-3.7-0.6-4.6-0.1l-0.1,0.1c-9.8,5.4-13.7,17.1-15.4,26l-0.5,2.6l-2-1.8c-1.3-1.1-3.2-2.8-5.3-4.1c-1.1-0.7-2.1-1.3-3-1.6
		C5.2,23,4.4,22.8,3.9,22.8z"/>
</g>
</svg>
