<?xml version="1.0" encoding="utf-8"?>
<!-- Generator: Adobe Illustrator 28.1.0, SVG Export Plug-In . SVG Version: 6.00 Build 0)  -->
<svg version="1.1" id="Capa_1" xmlns="http://www.w3.org/2000/svg" xmlns:xlink="http://www.w3.org/1999/xlink" x="0px" y="0px"
	 viewBox="0 0 67 73" style="enable-background:new 0 0 67 73;" xml:space="preserve">
<style type="text/css">
	.st0{fill:#BD2C68;}
</style>
<g>
	<path class="st0" d="M35.6,14c-3,4.9-5,10-5.9,12.5l-0.4,1l-0.8-0.7c-3.4-2.9-7.6-5.2-11.7-6.4l0,0c-2.3-0.7-4.4-1-6.3-0.9
		c-2.1,0.1-3.8,0.5-5.3,1.4c-1.5,0.9-2.9,2.4-3.7,5c-0.8,2.6-0.8,6.4,0.7,11.8l0,0C4.9,47.5,14,56.5,28.8,63.7
		c5.5,2.7,10.9,4.7,14.9,6c2,0.6,3.6,1.1,4.8,1.4c0.6,0.2,1,0.3,1.3,0.4c0.2,0,0.3,0.1,0.4,0.1l0.1,0l0,0l0,0l0,0l0.2,0.1l0.1-0.2
		c3.3-3.9,6.1-8.8,8.5-14.6c2.2-5.3,3.9-11.3,5-17.4l0.7,0.1l-0.7-0.1C66.3,27.5,65.9,16,63,8.9c-1.9-4.8-4.9-7.4-8.5-7.8l0,0
		C47.9,0.4,41.3,4.7,35.6,14z M35.6,14l-0.6-0.4L35.6,14z"/>
	<path d="M50.8,72.5L50,72.3l0,0l-0.4-0.1c-0.3-0.1-0.8-0.2-1.4-0.4c-1.5-0.4-3.2-0.9-4.8-1.5c-3.6-1.2-9.2-3.2-15-6
		C13.6,57.2,4.3,48,1.5,38c-1.4-5-1.6-9.1-0.7-12.2c0.7-2.4,2.1-4.2,4-5.4c1.6-0.9,3.5-1.4,5.6-1.5c2-0.1,4.2,0.3,6.5,0.9
		c4.2,1.2,8.5,3.6,12,6.5l0,0c0.9-2.5,2.8-7.3,5.6-12l0,0l0.3-0.5c0,0,0.1-0.1,0.1-0.1l0,0c0,0,0.1-0.1,0.1-0.1l0.3-0.5l0,0
		C41,4,47.7-0.4,54.6,0.3c4,0.4,7.1,3.3,9.1,8.3c2.9,7.1,3.4,18.4,1.3,30.4l0,0l-0.1,0.6c0,0,0,0.1,0,0.1l0,0c0,0,0,0,0,0.1
		l-0.1,0.7l0,0c-1.1,5.9-2.8,11.6-4.9,16.8C57.5,63.1,54.5,68,51.2,72L50.8,72.5z M50.2,71.6L50,72.2l0.1-0.3L50.2,71.6z M50.3,71.5
		l0,0.1L50.3,71.5L50.3,71.5z M10.9,20.4c-0.1,0-0.3,0-0.4,0c-1.9,0.1-3.6,0.5-4.9,1.3c-1.6,1-2.8,2.5-3.4,4.5
		c-0.8,2.9-0.6,6.7,0.7,11.4C5.6,47.2,14.6,56,29.1,63.1c5.7,2.8,11.2,4.8,14.8,5.9c2,0.7,3.7,1.2,4.8,1.4c0.6,0.2,1,0.3,1.3,0.4
		l0.2,0.1c3.2-3.8,5.9-8.6,8.2-14.2c2.2-5.2,3.9-11.2,4.9-17.2l0,0c2.1-11.9,1.7-23.2-1.1-30.3c-1.8-4.5-4.5-7-7.9-7.3
		C48,1.1,41.7,5.5,36.2,14.4c-3,4.9-4.9,9.9-5.9,12.4l-0.7,2L28,27.5c-3.3-2.8-7.5-5-11.4-6.2C14.5,20.7,12.6,20.4,10.9,20.4z"/>
</g>
</svg>
