<?xml version="1.0" encoding="utf-8"?>
<!-- Generator: Adobe Illustrator 28.1.0, SVG Export Plug-In . SVG Version: 6.00 Build 0)  -->
<svg version="1.1" id="Capa_1" xmlns="http://www.w3.org/2000/svg" xmlns:xlink="http://www.w3.org/1999/xlink" x="0px" y="0px"
	 viewBox="0 0 86.1 23.8" style="enable-background:new 0 0 86.1 23.8;" xml:space="preserve">
<style type="text/css">
	.st0{fill:#FFFFFF;}
</style>
<g>
	<g>
		<rect x="4.3" y="4.5" class="st0" width="7.5" height="1.3"/>
		<path class="st0" d="M8,3.9c0.5,0,0.9-0.4,0.9-0.9S8.5,2.2,8,2.2S7.1,2.6,7.1,3S7.5,3.9,8,3.9z"/>
		<path class="st0" d="M10.3,3.9c0.5,0,0.9-0.4,0.9-0.9s-0.4-0.9-0.9-0.9S9.4,2.6,9.4,3S9.8,3.9,10.3,3.9z"/>
		<path class="st0" d="M12.7,3.9c0.5,0,0.9-0.4,0.9-0.9s-0.4-0.9-0.9-0.9S11.8,2.6,11.8,3C11.8,3.5,12.2,3.9,12.7,3.9z"/>
		<path class="st0" d="M5.7,3.9c0.5,0,0.9-0.4,0.9-0.9S6.2,2.2,5.7,2.2S4.8,2.6,4.8,3C4.8,3.5,5.2,3.9,5.7,3.9z"/>
		<path class="st0" d="M3.4,3.9c0.5,0,0.9-0.4,0.9-0.9S3.9,2.2,3.4,2.2S2.5,2.6,2.5,3C2.5,3.5,2.9,3.9,3.4,3.9z"/>
		<path class="st0" d="M8,15c0.5,0,0.9-0.4,0.9-0.9S8.5,13.3,8,13.3s-0.9,0.4-0.9,0.9C7.1,14.6,7.5,15,8,15z"/>
		<path class="st0" d="M7.1,10.9c0,0.5,0.4,0.9,0.9,0.9s0.9-0.4,0.9-0.9S8.5,10,8,10C7.5,10,7.1,10.4,7.1,10.9z"/>
		<path class="st0" d="M7,13.1c0.4-0.4,0.4-0.9,0-1.3s-0.9-0.4-1.3,0s-0.4,0.9,0,1.3S6.7,13.5,7,13.1z"/>
		<path class="st0" d="M9,15.2c-0.4,0.4-0.4,0.9,0,1.3s0.9,0.3,1.3,0s0.4-0.9,0-1.3S9.4,14.8,9,15.2z"/>
		<path class="st0" d="M4.7,13.3c-0.5,0-0.9,0.4-0.9,0.9S4.2,15,4.7,15s0.9-0.4,0.9-0.9C5.6,13.6,5.2,13.3,4.7,13.3z"/>
		<path class="st0" d="M11.3,15c0.5,0,0.9-0.4,0.9-0.9s-0.4-0.9-0.9-0.9s-0.9,0.4-0.9,0.9S10.8,15,11.3,15z"/>
		<path class="st0" d="M7,15.2c-0.4-0.4-0.9-0.4-1.3,0s-0.4,0.9,0,1.3s0.9,0.3,1.3,0C7.3,16.1,7.3,15.5,7,15.2z"/>
		<path class="st0" d="M9,13.1c0.4,0.4,0.9,0.4,1.3,0s0.4-0.9,0-1.3c-0.4-0.4-0.9-0.4-1.3,0C8.7,12.2,8.7,12.8,9,13.1z"/>
		<path class="st0" d="M8,6.6l-7.5,7.5L8,21.7l7.5-7.5L8,6.6z M2.3,14.1L8,8.4l5.7,5.7L8,19.9L2.3,14.1z"/>
		<polygon class="st0" points="9.1,17.7 8.5,17.7 8.5,18.5 8.1,18.5 8,18.5 7.6,18.5 7.6,17.7 6.9,17.7 6.9,17 8,17 8.1,17 9.1,17 
					"/>
	</g>
	<g>
		<path class="st0" d="M20.9,16.1c-0.5,0-1.1,0-1.5,0v-5.1c0.4,0,1.1,0,1.8,0c1.6,0,2.6,0.7,2.6,2.5C23.7,15.2,22.6,16.1,20.9,16.1z
			 M21,11.9c-0.2,0-0.4,0-0.5,0v3.2c0.1,0,0.3,0,0.4,0c0.8,0,1.4-0.5,1.4-1.6C22.4,12.5,22.1,11.9,21,11.9z"/>
		<path class="st0" d="M25,11.9c-0.4,0-0.7-0.3-0.7-0.7c0-0.4,0.3-0.7,0.7-0.7c0.4,0,0.7,0.3,0.7,0.7C25.7,11.6,25.4,11.9,25,11.9z
			 M24.4,16.1v-3.8h1.2v3.8H24.4z"/>
		<path class="st0" d="M28,16.1c-0.2,0-0.3,0-0.4,0v1.8h-1.2v-5.6h1.1c0,0.2,0,0.4,0,0.5h0c0.2-0.4,0.6-0.6,1.2-0.6
			c0.9,0,1.4,0.7,1.4,1.8C30.1,15.3,29.4,16.1,28,16.1z M28.3,13.2c-0.4,0-0.7,0.5-0.7,1.1v0.9c0.1,0,0.2,0,0.4,0
			c0.5,0,0.8-0.3,0.8-1.1C28.8,13.5,28.7,13.2,28.3,13.2z"/>
		<path class="st0" d="M33.1,16.1c0-0.1,0-0.4,0-0.6h0c-0.2,0.4-0.7,0.7-1.3,0.7c-0.8,0-1.1-0.5-1.1-1.2v-2.7h1.2v2.4
			c0,0.3,0.1,0.5,0.3,0.5c0.4,0,0.8-0.5,0.8-1.1v-1.8h1.2v3.8L33.1,16.1L33.1,16.1z"/>
		<path class="st0" d="M36.5,16.2c-0.9,0-1.2-0.3-1.2-1.2v-1.8h-0.6v-0.9h0.6v-1.1l1.2-0.3v1.4h0.8v0.9h-0.8v1.5
			c0,0.4,0.1,0.5,0.4,0.5c0.1,0,0.3,0,0.4-0.1v0.9C37,16.1,36.7,16.2,36.5,16.2z"/>
		<path class="st0" d="M40.1,16.1c0-0.2,0-0.4,0-0.6h0c-0.2,0.4-0.6,0.7-1.2,0.7c-0.7,0-1.1-0.4-1.1-1c0-1,0.9-1.4,2.2-1.4v-0.2
			c0-0.3-0.2-0.5-0.7-0.5c-0.3,0-0.8,0.1-1.1,0.3l-0.1-1c0.4-0.1,0.9-0.2,1.4-0.2c1.3,0,1.7,0.5,1.7,1.4v1.6c0,0.3,0,0.6,0,0.9
			C41.2,16.1,40.1,16.1,40.1,16.1z M39.9,14.4c-0.8,0-1,0.2-1,0.5c0,0.2,0.1,0.3,0.4,0.3c0.4,0,0.7-0.4,0.7-0.7V14.4z"/>
		<path class="st0" d="M43.6,16.2c-1.2,0-1.8-0.6-1.8-1.9c0-1.1,0.6-2.1,2-2.1c0.2,0,0.5,0,0.7,0.1l-0.1,1c-0.2-0.1-0.4-0.1-0.6-0.1
			c-0.5,0-0.8,0.4-0.8,1c0,0.6,0.3,0.9,0.8,0.9c0.2,0,0.5,0,0.6-0.1l0.1,1C44.3,16.1,43.9,16.2,43.6,16.2z"/>
		<path class="st0" d="M45.8,11.9c-0.4,0-0.7-0.3-0.7-0.7c0-0.4,0.3-0.7,0.7-0.7c0.4,0,0.7,0.3,0.7,0.7S46.2,11.9,45.8,11.9z
			 M45.3,16.1v-3.8h1.2v3.8H45.3z"/>
		<path class="st0" d="M48.9,16.2c-1.1,0-1.8-0.5-1.8-1.9c0-1.2,0.8-2.1,2-2.1c1.2,0,1.8,0.6,1.8,1.9C50.9,15.3,50.1,16.2,48.9,16.2
			z M48.7,11.8l-0.4-0.7l1.5-0.8l0.5,0.8L48.7,11.8z M49,13.2c-0.4,0-0.7,0.3-0.7,1c0,0.7,0.2,1,0.7,1c0.4,0,0.7-0.4,0.7-1
			C49.7,13.5,49.5,13.2,49,13.2z"/>
		<path class="st0" d="M54.8,11.9v4.1h-1.2v-4.1h-1.2v-1H56v1C56,11.9,54.8,11.9,54.8,11.9z"/>
		<path class="st0" d="M58.2,16.1c0-0.2,0-0.4,0-0.6h0c-0.2,0.4-0.6,0.7-1.2,0.7c-0.7,0-1.1-0.4-1.1-1c0-1,0.9-1.4,2.1-1.4v-0.2
			c0-0.3-0.2-0.5-0.7-0.5c-0.3,0-0.8,0.1-1.1,0.3l-0.1-1c0.4-0.1,0.9-0.2,1.4-0.2c1.3,0,1.7,0.5,1.7,1.4v1.6c0,0.3,0,0.6,0,0.9
			C59.3,16.1,58.2,16.1,58.2,16.1z M58.1,14.4c-0.8,0-1,0.2-1,0.5c0,0.2,0.1,0.3,0.4,0.3c0.4,0,0.7-0.4,0.7-0.7V14.4z"/>
		<path class="st0" d="M62.3,13.3c-0.6-0.1-1,0.2-1,1.2v1.6h-1.2v-3.8h1.1c0,0.2,0,0.4-0.1,0.7h0c0.2-0.5,0.6-0.8,1.1-0.8L62.3,13.3
			z"/>
		<path class="st0" d="M65.1,13.3c-0.6-0.1-1,0.2-1,1.2v1.6h-1.2v-3.8H64c0,0.2,0,0.4-0.1,0.7h0c0.2-0.5,0.6-0.8,1.1-0.8L65.1,13.3z
			"/>
		<path class="st0" d="M67.6,16.1c0-0.2,0-0.4,0-0.6h0c-0.2,0.4-0.6,0.7-1.2,0.7c-0.7,0-1.1-0.4-1.1-1c0-1,0.9-1.4,2.1-1.4v-0.2
			c0-0.3-0.2-0.5-0.7-0.5c-0.3,0-0.8,0.1-1.1,0.3l-0.1-1c0.4-0.1,0.9-0.2,1.4-0.2c1.3,0,1.7,0.5,1.7,1.4v1.6c0,0.3,0,0.6,0,0.9
			C68.7,16.1,67.6,16.1,67.6,16.1z M67.5,14.4c-0.8,0-1,0.2-1,0.5c0,0.2,0.1,0.3,0.4,0.3c0.4,0,0.7-0.4,0.7-0.7V14.4z"/>
		<path class="st0" d="M71,18c-1,0-1.7-0.4-1.7-1.1c0-0.4,0.2-0.7,0.5-0.9c-0.2-0.1-0.4-0.3-0.4-0.6c0-0.3,0.2-0.6,0.5-0.7
			c-0.4-0.2-0.6-0.6-0.6-1c0-0.8,0.6-1.5,1.8-1.5c0.3,0,0.5,0,0.7,0.1h1.3v0.9h-0.4c0.1,0.1,0.1,0.2,0.1,0.4c0,0.8-0.6,1.4-1.7,1.4
			c-0.1,0-0.2,0-0.3,0c-0.1,0-0.1,0.1-0.1,0.2c0,0.1,0.1,0.2,0.5,0.2h0.5c0.8,0,1.3,0.4,1.3,1.1C73.1,17.3,72.3,18,71,18z
			 M71.5,16.2h-0.6c-0.1,0-0.1,0-0.2,0c-0.2,0.1-0.2,0.3-0.2,0.4c0,0.3,0.2,0.5,0.7,0.5c0.5,0,0.8-0.2,0.8-0.5
			C72,16.4,71.8,16.2,71.5,16.2z M71.1,13c-0.4,0-0.6,0.2-0.6,0.5c0,0.3,0.2,0.6,0.6,0.6c0.3,0,0.6-0.2,0.6-0.5
			C71.7,13.2,71.5,13,71.1,13z"/>
		<path class="st0" d="M75.3,16.2c-1.1,0-1.8-0.5-1.8-1.9c0-1.2,0.8-2.1,2-2.1c1.2,0,1.8,0.6,1.8,1.9C77.4,15.3,76.5,16.2,75.3,16.2
			z M75.5,13.2c-0.4,0-0.7,0.3-0.7,1c0,0.7,0.2,1,0.7,1c0.4,0,0.7-0.4,0.7-1C76.1,13.5,75.9,13.2,75.5,13.2z"/>
		<path class="st0" d="M80.3,16.1v-2.4c0-0.3-0.1-0.5-0.3-0.5c-0.4,0-0.8,0.5-0.8,1.1v1.8H78v-3.8h1.1c0,0.1,0,0.4-0.1,0.6h0
			c0.2-0.4,0.7-0.7,1.3-0.7c0.8,0,1.1,0.5,1.1,1.2v2.7L80.3,16.1L80.3,16.1z"/>
		<path class="st0" d="M84.4,16.1c0-0.2,0-0.4,0-0.6h0c-0.2,0.4-0.6,0.7-1.2,0.7c-0.7,0-1.1-0.4-1.1-1c0-1,0.9-1.4,2.2-1.4v-0.2
			c0-0.3-0.2-0.5-0.7-0.5c-0.3,0-0.8,0.1-1.1,0.3l-0.1-1c0.4-0.1,0.9-0.2,1.4-0.2c1.3,0,1.7,0.5,1.7,1.4v1.6c0,0.3,0,0.6,0,0.9
			C85.6,16.1,84.4,16.1,84.4,16.1z M84.3,14.4c-0.8,0-1,0.2-1,0.5c0,0.2,0.1,0.3,0.4,0.3c0.4,0,0.7-0.4,0.7-0.7V14.4z"/>
	</g>
</g>
</svg>
