<?xml version="1.0" encoding="utf-8"?>
<!-- Generator: Adobe Illustrator 28.1.0, SVG Export Plug-In . SVG Version: 6.00 Build 0)  -->
<svg version="1.1" id="Capa_1" xmlns="http://www.w3.org/2000/svg" xmlns:xlink="http://www.w3.org/1999/xlink" x="0px" y="0px"
	 viewBox="0 0 1020 768" style="enable-background:new 0 0 1020 768;" xml:space="preserve">
<style type="text/css">
	.st0{fill:#FFFFFF;}
</style>
<g>
	<path class="st0" d="M1011.1,243.8c-8.8,9-19.7,9.3-31.1,7.8c-54.8-7.2-109.7-14.4-164.5-21.7c-25.4-3.4-50.4-8.6-76.3-8.8
		c-17.5-0.1-34.8-7.2-52.5-9.5c-23.2-3-46.5-4.2-69.8-6.5c-13-1.3-26.2-2.6-39-5.3c-14.7-3-17.7-0.8-15.9,14.4
		c0.7,6,1.1,12,1.6,18.3c-2.3,0.6-3.6,1.4-4.7,1.2c-15.2-3.8-23.6,5.3-30.5,16.4c-2.6,4.2-4.6,9.9-4.4,14.8
		c1.2,34.5,2.8,69.1,4.7,103.6c1.5,25.7,2.8,51.4,5.8,76.9c1.3,11.4,6.8,22.3,9.7,33.6c2.4,9.5,4,19.2,5.6,28.9
		c1.1,6.3,1.3,12.8,2.5,19.2c4.8,25.5,13.4,30.6,35.7,18.3c18.6-10.3,36.1-22.5,53.5-34.8c3.2-2.3,5.4-8.6,5.1-12.9
		c-2-24.3-4.9-48.6-7.6-72.9c-2.6-22.5,0.1-43.8,10.8-64.1c6.4-12.2,11.2-25.1,17-38.4c21.3,4.1,34.5,18.6,43.4,37.1
		c10.4,21.8,11.6,44.9,7.1,68.6c-5.1,26.8-14.4,51.4-32.5,72.3c-1.1,1.3-1.9,3.1-3.2,3.9c-18.4,9.9-12.6,26.6-12.6,41.7
		c0.8,0.7,1.7,1.4,2.5,2.1c6.7-7.2,13.7-14,20-21.5c10.7-12.7,20.4-26.3,31.8-38.3c6.3-6.7,15.4-10.8,23.1-16.2
		c8.9-6.1,17.3-13.2,26.8-18.2c7.1-3.8,15.5-5.7,23.5-7.4c2.3-0.5,7,2.5,7.6,4.7c0.6,2.4-1.5,6.9-3.8,8.4
		c-30.3,20.2-37.1,51.4-40.3,84.4c-0.6,6.1-0.2,12.2-0.2,18.3c0,0.6,0.4,1.3,1.2,3.5c9.3-6.2,16.1-14.3,21.3-23.3
		c13.5-23.3,24.3-47.7,23.1-75.8c-0.2-4.2,1.9-8.5,3.3-12.7c2.3-6.9,4.1-13.8,14.5-11.1c10.6,2.7,7.9,9.6,7.2,16.6
		c-3.5,34-6.9,68-10.1,102c-0.3,3.4,0.7,6.9,3.4,10.8c3.4-5.9,6.1-12.4,10.4-17.7c26.5-32.6,34.7-70,29.3-110.9
		c-1.2-9.4,2.1-11.8,10.6-12.3c16.5-1,33-2.9,49.5-4.2c10.3-0.9,13.5,4.4,13.1,14.2c-0.6,15.6-1,31.3,0.1,46.9
		c0.9,12,4,23.9,6.4,35.8c1.8,8.5,8,12,16,13.4c9.4,1.6,18.7,3.1,28,5.2c2.9,0.7,5.5,3.2,8.2,5c-2.1,2.8-3.6,6.7-6.4,8.1
		c-3.7,1.9-8.6,3-12.6,2.3c-12.3-2-25.1-3.6-36.5-8.2c-6.7-2.7-13-10.2-16-17.1c-4.1-9.4-6-20.2-6.7-30.5
		c-1.1-15.9-0.7-31.9-0.3-47.9c0.2-7.4-2.8-10-9.7-8.9c-6,0.9-12.3,1.4-17.8,3.7c-3,1.2-6.5,5.7-6.7,8.9
		c-0.7,12.5-0.3,25.1-0.1,37.7c0.2,12.5-3.3,23.2-13.2,31.7c-12.8,11-22.4,24.3-27.3,40.9c-2.4,8-6.7,15.5-10.9,22.9
		c-5.5,9.7-16.8,10.1-21.6,0.2c-3.8-8-5-17.3-7-26.1c-0.8-3.4-0.4-7.1-2.8-11.6c-4.1,5.1-8,10.4-12.5,15.2
		c-4.4,4.6-8.8,9.8-14.3,12.7c-5.5,2.8-13.5,5.8-18.4,3.8c-7.9-3.2-13.3-10.3-13.3-20.8c0.1-24.2,1.7-48,10.6-70.9
		c-1-0.8-1.9-1.5-2.9-2.3c-12.5,12.2-25.7,23.8-37.2,36.9c-13,14.8-24.7,30.7-36.3,46.6c-2.8,3.9-3.9,9.8-4.1,14.8
		c-1.5,34.6-1.5,69.4-4.3,103.8c-1.2,14-7,28.6-23.4,33.8c-4.1,0-8.2,0-12.2,0c-13-0.7-21-7.6-26.6-19.2c-7.8-16-10-32-4.8-49.2
		c8.3-28,25.7-50.8,42.4-73.8c6.6-9,11.2-17.1,8.6-28.6c-1.4-6.5-0.9-13.4-1.4-22.8c-6.3,3.4-11,6-15.8,8.6
		c-15.1,8.2-29.4,19.1-45.5,23.9c-35.5,10.5-49.3,0-56.6-36.8c-4.2-21.1-10.7-41.8-15.2-62.9c-2.9-13.5-5.3-27.3-6.1-41
		c-3.1-55.2-5.1-110.5-8.2-165.7c-1.2-20.9,12.9-40.1,34-43.4c1-0.2,1.9-0.6,3.8-1.2c0-6.8,0.1-13.8,0-20.8
		c-0.2-13.2-0.5-26.5-0.7-39.7c-0.2-13.6-1.9-15.7-15-18.6c-2.9-0.6-5.8-1.7-8.6-2.9c-11.1-4.6-16.3-12.2-16-24.9
		c0.4-16.5-9.7-29.8-19.2-41.6c-3.7-4.6-16.5-4.4-24.2-2.4c-6.8,1.8-13.6,8.1-17.8,14.2c-11.4,16.7-21.1,34.5-32,51.5
		c-2.1,3.3-6.1,6-9.8,7.5c-12,4.6-24.4,8-36.1,13.1c-3.2,1.4-6.5,7.3-6.2,10.8c1.7,19.2,4.1,38.4,7.3,57.5c0.5,2.9,6.2,5.9,10.1,7.1
		c7.8,2.5,17.8,1.4,19.2,12.8c0.4,3.5-0.8,7.1-1.1,10.8c-0.3,4-0.1,8-0.4,12c-1.6,22.3-3.1,44.7-5,67c-0.8,8.8-2.8,17.4-3.7,26.1
		c-2.2,22.2-5.5,44.5-5.7,66.8c-0.3,25.8-7.5,50.1-11.7,75.1c-6.3,36.9-22,69.5-38.7,102c-13.7,26.6-20.3,27.3-42,18.8
		c-16.3-6.5-32.6-13-48.3-20.7c-5.8-2.8-10.5-8.6-14.6-13.8c-3.9-5-7.8-5.8-11.8-1.8c-6.2,6.2-13.1,12.3-17.2,19.8
		c-6.6,12.4-16.9,14.2-28.2,11.5c-17.6-4.1-35.7-6.9-45.9-25.9c-5.4-10-15.5-17.5-24.2-27c-14.5,10.4-32.5,10.1-50.2,3.7
		c-10.4-3.8-19.8-10.3-30.9-16.3c10.1-9.5,17.6-5.5,24.6-1.7c17.2,9.3,22.1,7.4,37.1-4.3c14.8-11.6,19.2-25.6,18.2-43
		c-0.3-4.4,0.6-9-0.3-13.2c-4.1-18.2,6.3-31.1,16.1-44c7.3-9.4,17.8-9.2,26.5-0.7c12,11.8,15.9,35.9,6.7,54.3
		c-5.8,11.7-14.7,21.8-21.9,32.8c-2.3,3.5-5.6,7.8-5.3,11.5c1.5,19,13.8,47.2,36.2,56.4c7.6,3.1,12.8,2.3,17.9-3.7
		c5-6,10.4-11.6,15.7-17.4c2.1-2.2,3.9-5.7,6.4-6.3c14.1-3.8,11.8-13.8,12.4-25c1.3-26.7,5.1-53.3,8.3-80
		c2.1-17.8,2.9-36.2,7.8-53.2c5.4-18.6,13.7-36.7,23.1-53.8c7.3-13.2,28.3-11.2,34.8,2.7c5.2,11.3,8.8,23.5,12,35.5
		c3.5,13.3,7.1,26.8,8.2,40.3c1.8,22.3-6.4,43.2-17,61.9c-12.3,21.6-27.9,41.4-43,61.4c-5.2,7-6.4,12.3-0.5,18.7
		c12.7,13.7,26.8,25.1,46.2,27.5c9.5,1.2,17.1-2.4,20.9-11c12.6-28.1,26.7-55.8,36.4-84.9c7-21.2,8.3-44.5,11.4-66.9
		c4.8-34.5,1.6-69.8,11.2-104c3.2-11.4,1.3-24.3,1.9-36.5c1-19.5,2-38.9,3.1-59.4c-6.6-1.7-17.1-1.6-22.7-6.7
		c-5.2-4.9-5.2-15.4-7.7-24.5c-26.8-3.5-52.3,8.8-78.6,15.6c-40.3,10.5-80.1,23.2-120,35c-8.4,2.5-17.1,4.6-24.9,8.5
		c-11.8,5.8-24.1,3.2-36.2,3.7c-3.8,0.1-7.7-4-11.6-6.2c0.1-1,0.2-1.9,0.3-2.9c7-1.9,14.1-3.8,21.1-5.5c19.6-4.8,40.3-7.2,58.8-14.7
		c57.5-23.3,116.3-41.2,177.9-49.8c4.9-0.7,13.6,1.9,12.5-7.5c-0.9-8.1-5.7-14.7-14.6-16.1c-13.1-1.9-26.4-2.8-39.4-4.9
		c-24.3-4.1-48.6-8.6-72.8-13.3c-31.2-6.1-62.5-12.1-93.5-19c-16-3.6-31.6-9-47.4-13.5c0.2-1.4,0.4-2.8,0.5-4.2c4-0.2,8-0.9,12-0.7
		c48.4,2.2,95.4,12.5,142.6,22.4c31.4,6.6,63.3,10.9,95.1,16.1c3.5,0.6,7.2,0.1,10.4,0.1c1.2-6.1,0.7-14,3.7-15.7
		c9.5-5.5,20.1-10.8,30.8-12.4c13.2-2,21-9.5,27.7-19.2c11.7-17,22.2-34.9,34.6-51.3c8.7-11.5,21.4-14.8,35.6-10.2
		c5.2,1.7,10.3,3.3,15.3,5.3c16.8,6.9,30.9,16.4,36.2,35.5c2.9,10.6,7.2,20.9,11.3,31.2c1,2.4,3.8,4.6,6.2,5.7
		c4.3,1.8,9.4,2.1,13.6,4.2c6.8,3.4,13.1,7.7,19.6,11.7c-0.5,1-0.9,2-1.4,3c31.6-5.7,63.4-10.6,94.9-17.2
		c41.5-8.7,82.6-18.6,123.9-28c3-0.7,6-1.5,8.6-3c34.8-19.7,73.9-23.2,112.1-30.1c0.4-0.1,0.9,0.8,1.9,1.8c-1.3,1-2.4,2.2-3.8,2.7
		c-28.7,10-57.1,21.1-86.2,29.7c-49.1,14.4-98.4,28-148.1,40.2c-23.9,5.9-48.9,7.7-73.3,11.9c-7.6,1.3-15,4.2-22.6,5.9
		c-6.1,1.3-8.2,4.6-8,10.7c0.6,20.5-2.7,17.5,17.3,20.2c41.4,5.4,82.8,10.8,124.2,15.9c33.6,4.2,67.4,7.6,101,11.9
		c32,4,63.8,9.2,95.8,12.9c24.9,2.9,50,3.8,75,6.6c12.3,1.4,24.3,5,36.5,7.6C1011.1,241.1,1011.1,242.5,1011.1,243.8z M259.1,375.7
		c-0.7,0.8-1.7,1.7-2.5,2.7c-15.7,21.3-16.4,47.5-22.8,71.7c-3.7,14-4.2,28.8-5.6,43.4c-1.2,12.5-1.6,25.1-2.4,37.6
		c1.2,0.3,2.5,0.7,3.8,1c10.5-16.8,21.3-33.5,31.6-50.5C282.7,446,279.2,410.7,259.1,375.7z M666.5,488c1,0.6,2.1,1.2,3.1,1.8
		c0.6-1.6,1-3.4,2-4.7c18.9-23,26.2-50.2,28.4-79c1.4-18.1-0.9-36-9.9-52.2c-4.5-8.2-8.8-8.8-12.8-0.5
		c-5.9,12.3-10.7,25.4-14.1,38.6C654.8,424.3,662.6,456.1,666.5,488z M652.5,607.7c-1.5-0.6-3-1.2-4.5-1.8
		c-9.9,17.5-20.2,34.8-29.5,52.7c-6.4,12.2-6.5,25.2-1.5,38.4c2.6,6.8,5.9,14.1,13.2,13c4.5-0.7,9.2-7.2,12-12.2
		C658.2,669.1,651.1,638,652.5,607.7z M122.2,462c-9.4,5.2-12.4,17.1-8.3,30.5C122.1,483.6,122.6,473.4,122.2,462z"/>
	<path class="st0" d="M951.9,39.9c7.3,9.9,6.8,12.2-3.8,16.9c-5.6,2.4-11.2,4.9-16.9,6.8c-9.3,3.1-14.7-0.2-17.6-9.4
		c11.5-4.8,22.8-9.6,34.2-14.3C949.2,39.9,950.6,39.9,951.9,39.9z"/>
	<path class="st0" d="M56.7,263c-7.2,20.5-24.8,18-37.4,24c-2.1,1-6.1-2.2-9.3-3.5c1.7-2.7,2.8-7.1,5.1-7.9
		C28.3,271,41.7,267.4,56.7,263z"/>
</g>
</svg>
