<?xml version="1.0" encoding="utf-8"?>
<!-- Generator: Adobe Illustrator 28.1.0, SVG Export Plug-In . SVG Version: 6.00 Build 0)  -->
<svg version="1.1" id="Capa_1" xmlns="http://www.w3.org/2000/svg" xmlns:xlink="http://www.w3.org/1999/xlink" x="0px" y="0px"
	 viewBox="0 0 306.7 239.6" style="enable-background:new 0 0 306.7 239.6;" xml:space="preserve">
<style type="text/css">
	.st0{fill:#FFFFFF;}
</style>
<g>
	<path class="st0" d="M172.8,62.2c4.6-0.5,8.1-3.3,11.8-5.6c11.1-7,23.3-10.8,35.9-13.8c10.5-2.5,21.1-3.1,31.8-2.9
		c11.2,0.2,22.1,2,32.5,6c2.4,0.9,3.4,0.4,3.6-2.1c0.1-0.9,0.4-1.8,0.8-2.6c0.9-1.8,2.4-2.9,4.4-2.6c2,0.3,3.4,1.5,3.8,3.8
		c0.8,4.5,1.2,8.9,0.7,13.4c-1.5,14.6-0.4,29.2-0.8,43.7c-0.4,13.1-1.1,26.3-4.9,39c-0.5,1.8-1.4,3.6-2,5.4c-0.4,1-0.6,2.1-2,1.7
		c-1.1-0.3-1.4-1.3-1.4-2.5c0.3-4.4,0.3-8.9,0.9-13.2c1.1-8,0.5-15.9,0.6-23.9c0.2-10.3,0.1-20.5,0.1-30.8c0-2.6,0.1-5.3,0.5-7.8
		c0.6-3.2-0.9-4.9-3.5-6.2c-6.4-3.1-13.1-4.9-20.1-5.9c-9.9-1.4-19.9-2.2-29.9-1.9c-8,0.2-16.2-0.5-24.1,1.5
		c-10.3,2.7-19.1,8.3-27.4,14.6c-7.2,5.4-14.4,10.7-21.8,15.7c-1.2,0.8-2.1,0.8-3.4,0.3c-12.6-4.6-25.4-8.8-38.6-11.8
		c-13.8-3.1-27.7-4.3-41.9-3C66,72,54.9,76.4,44.3,83c-6.3,4-13.7,5.9-20.7,8.3c-3.8,1.3-7.8,2.4-11.4,4.4c-1.8,1-2.9,0.1-3.8-1
		c-1-1.3,0.5-2,1.3-2.7c18.1-15.5,38.9-25.5,62.4-30c9.1-1.7,18.2-2.5,27.4-2.7c11.7-0.2,23.2,1.9,34.5,4.5c3.5,0.8,7,1.5,10.5,2.2
		c0.2-1.9-1.3-2.1-2.3-2.7c-8.4-5.4-17.6-7.9-27.5-8.9C101,53,87.5,54.4,73.9,55c-12.2,0.5-24.4,0.9-36.5-0.5
		c-1-0.1-2.2-0.1-2.5-1.3c-0.3-1.1,0.3-2,1-2.8c2.1-2.3,5.1-2.2,7.8-2.7c9.8-1.8,19.7-3.1,29.7-3.7c10.8-0.7,21.5-1.5,32.3-0.8
		c8.9,0.6,17.8,1.6,27.2,3.3c-3.4-3.6-7.4-5-11.3-6.2c-10.8-3.3-21.8-4.9-33.1-5.2c-6.4-0.2-12.7-0.8-19.1-0.6
		c-1.8,0-3.1-0.7-3.5-2.2s1.3-2.3,2.4-2.9c2.9-1.6,6.2-2.4,9.4-2.5c11.7-0.2,23.5-0.5,35.1,1.4c15.6,2.6,30.5,7.2,43.4,16.8
		c2.5,1.8,4,1.3,5.8-0.8c16.1-17.7,35.9-29.2,59-35.2c3.5-0.9,7-1.6,10.7-1.9c1.2-0.1,2.4,0,2.9,1.2c0.7,1.4-0.4,2.3-1.3,3.2
		c-3.1,2.9-7.2,3.1-11,3.7c-7.3,1.2-13.2,5.2-18.9,9.6c-0.4,0.3-1.5,0.4-1.1,1.3c0.4,0.9,1.1,0.6,1.9,0.3c8.2-2.8,16.3-6,24.8-8
		c4.9-1.1,9.8-2,14.7-0.4c3.4,1.1,7,0.1,10.4,1.3c0.3,0.1,0.7-0.1,1,0c1.7,0.6,3.9,1.3,4,3.2c0.1,1.8-1.8,2.9-3.6,3.6
		c-3.1,1.2-6.4,1.2-9.4,0.4c-6.3-1.6-12.3-1-18.3,1c-11.3,3.9-22.8,7.6-33.1,13.8c-8.8,5.2-17.1,11.1-22.9,19.9
		c-0.2,0.3-0.5,0.6-0.8,0.9C172,62.9,172.4,62.7,172.8,62.2z"/>
	<path class="st0" d="M120.8,111.8c8.4,0,16.9,0.1,25.3-0.1c2.7-0.1,4.1,0.2,3.9,3.6c-0.3,4.5,0.2,9.1,0.3,13.7c0,0.7,0.3,1.8-0.8,2
		c-1.2,0.2-1.4-0.7-1.7-1.7c-0.3-1.1-0.7-2.2-1.1-3.2c-2.4-6.4-6.1-9.1-12.9-9.2c-5.8-0.1-11.6,0-17.4-0.1c-1.9,0-2.6,0.4-2.6,2.4
		c0.1,9.7,0.1,19.4,0,29.1c0,1.5,0.2,2.3,2,2.3c4.4-0.1,8.9,0.1,13.3-0.2c5.8-0.4,8.1-2.8,8.6-8.5c0.1-0.7,0.2-1.4,0.2-2
		c0-0.9,0.5-1.2,1.3-1.2c0.9,0,1.1,0.5,1.1,1.3c0,8.9,0,17.8,0,26.7c0,0.7,0,1.4-1,1.5s-1.4-0.4-1.5-1.4c0-0.2-0.1-0.4-0.1-0.7
		c-0.2-8.2-4.2-10.2-11.8-10.1c-3.3,0-6.6,0.1-9.9,0c-1.8-0.1-2.4,0.4-2.4,2.3c0.1,9.7,0,19.4,0.2,29.1c0.1,6.1,2.1,8,8.4,8.4
		c1,0.1,2.5-0.6,2.6,1.3c0.1,2-1.6,1.2-2.5,1.3c-9.5,0.1-18.9,0.1-28.4,0c-0.9,0-2.2,0.6-2.4-1.1c-0.1-1.9,1.3-1.4,2.4-1.5
		c6.5-0.5,8.5-2.4,8.5-9c0.1-21.1,0.1-42.2,0-63.3c0-6.4-2-8.4-8.2-8.9c-1.1-0.1-2.9,0.5-2.6-1.6c0.2-1.8,1.8-1,2.8-1
		C103.2,111.8,112,111.8,120.8,111.8z"/>
	<path class="st0" d="M159.6,217.5c0-9.3,0.5-18.6,1.3-27.9c1.2-14.6,2.1-29.3,2.9-43.9c0.9-15.2,1.1-30.5-0.4-45.7
		c-0.2-2.4-0.7-5.1,1.8-6.9c1.5-1.1,3.1-2.1,5-1.2c1.7,0.8,2.1,2.4,2.3,4.2c0.8,10.1,0.6,20.2,0.7,30.4c0.1,14.1,0.4,28.3-0.2,42.4
		c-0.5,13.2-1,26.5-3.5,39.6c-0.4,2-1.7,4.9,1.1,6.5c2.8,1.7,5-0.1,7-1.9c2-1.9,3.9-3.8,5.8-5.8c1.3-1.4,2.7-2.4,4.3-3.3
		c1.3-0.7,2.8-1.6,4.1-0.2c1.4,1.4,1.1,3.3,0.1,4.7c-4.8,6.4-9,13.1-15.5,18c-3.5,2.7-7.4,3.8-11.8,3.4c-1.9-0.1-2.9-0.9-3.4-2.7
		C160.3,224,159.4,220.9,159.6,217.5z"/>
	<path class="st0" d="M49.8,198.3c-9.2,0-18.5,0-27.7,0c-1,0-2.6,0.7-2.6-1.2c0-1.8,1.5-1.3,2.5-1.4c6.4-0.5,8.3-2.2,8.4-8.7
		c0.4-21.3,0.4-42.6,0-63.9c-0.1-6.2-2-8-8.2-8.6c-1.1-0.1-2.9,0.5-2.7-1.6c0.2-1.8,1.8-1,2.7-1.1c10-0.1,20.1-0.1,30.1,0
		c0.9,0,2.5-0.8,2.6,1.2c0,1.8-1.5,1.3-2.5,1.4C44,115,42.1,116.6,42,125c-0.2,20.3-0.1,40.6,0,60.9c0,5.4,1.5,6.5,6.9,6.5
		c5,0,10-0.2,15.1,0c8,0.3,13.5-3.3,17.1-10.1c1.2-2.2,2.2-4.5,3.2-6.8c0.4-0.9,0.9-1.4,1.8-1c0.9,0.3,0.6,1.1,0.4,1.7
		c-2,6.9-4.1,13.7-5.9,20.6c-0.5,1.9-1.8,1.4-2.9,1.4C68.3,198.3,59,198.3,49.8,198.3z"/>
	<path class="st0" d="M294.7,158.4c2.1,0,5,4.8,4.5,7.6c-1,5.7-4.5,9.9-8.8,13.4c-14.4,11.5-30.1,20.9-47.7,26.9
		c-8,2.8-16.3,5-24.8,5.6c-3.9,0.3-8-1-11.6-3.1c-1.2-0.7-1.9-1.7-1.9-3c0-1.8,1.7-1.3,2.6-1.5c19-4.1,35.9-13.1,52.5-22.7
		c4.3-2.5,8.7-4.9,13.1-7.3c4.4-2.3,6.9-6.5,10.3-9.7C286.3,161.3,289.7,158.5,294.7,158.4z"/>
	<path class="st0" d="M187.1,101.9c-0.1-6.1,4.4-10.9,10.1-11c5.9,0,11.2,3.8,11.1,8.2c-0.1,5.2-6.1,12.9-10.2,13
		C191.8,112.3,187.2,108,187.1,101.9z"/>
</g>
<path class="st0" d="M172.8,62.2c0,0-0.7,0.3-0.6-0.6c0.1-0.9-2.4,0.8-2.3,0.9c0.2,0.1,0.7,1.3,0.7,1.3l2.2-0.8L172.8,62.2
	L172.8,62.2z"/>
</svg>
