<svg width="297" height="46" viewBox="0 0 297 46" fill="none" xmlns="http://www.w3.org/2000/svg">
<rect width="334" height="46" rx="11" fill="#F7CF73"/>
<path d="M27.88 30L23.32 16.04H26.02L28.16 22.84L29.4 27.48H29.46L30.68 22.84L32.82 16.04H35.44L30.88 30H27.88ZM40.7703 30.24C39.997 30.24 39.3036 30.1133 38.6903 29.86C38.0903 29.5933 37.577 29.2267 37.1503 28.76C36.737 28.28 36.417 27.7067 36.1903 27.04C35.9636 26.36 35.8503 25.6 35.8503 24.76C35.8503 23.9333 35.957 23.1867 36.1703 22.52C36.397 21.8533 36.717 21.2867 37.1303 20.82C37.5436 20.34 38.0503 19.9733 38.6503 19.72C39.2503 19.4533 39.9303 19.32 40.6903 19.32C41.5036 19.32 42.2103 19.46 42.8103 19.74C43.4103 20.02 43.9036 20.4 44.2903 20.88C44.677 21.36 44.9636 21.92 45.1503 22.56C45.3503 23.1867 45.4503 23.86 45.4503 24.58V25.42H38.5103V25.68C38.5103 26.44 38.7236 27.0533 39.1503 27.52C39.577 27.9733 40.2103 28.2 41.0503 28.2C41.6903 28.2 42.2103 28.0667 42.6103 27.8C43.0236 27.5333 43.3903 27.1933 43.7103 26.78L45.0903 28.32C44.6636 28.92 44.077 29.3933 43.3303 29.74C42.597 30.0733 41.7436 30.24 40.7703 30.24ZM40.7303 21.24C40.0503 21.24 39.5103 21.4667 39.1103 21.92C38.7103 22.3733 38.5103 22.96 38.5103 23.68V23.84H42.7903V23.66C42.7903 22.94 42.6103 22.36 42.2503 21.92C41.9036 21.4667 41.397 21.24 40.7303 21.24ZM53.9427 28.26H53.8427C53.7493 28.5267 53.6227 28.78 53.4627 29.02C53.316 29.2467 53.1227 29.4533 52.8827 29.64C52.656 29.8267 52.376 29.9733 52.0427 30.08C51.7227 30.1867 51.3493 30.24 50.9227 30.24C49.8427 30.24 49.016 29.8867 48.4427 29.18C47.8693 28.4733 47.5827 27.4667 47.5827 26.16V19.56H50.1427V25.9C50.1427 26.62 50.2827 27.1733 50.5627 27.56C50.8427 27.9333 51.2893 28.12 51.9027 28.12C52.156 28.12 52.4027 28.0867 52.6427 28.02C52.896 27.9533 53.116 27.8533 53.3027 27.72C53.4893 27.5733 53.6427 27.4 53.7627 27.2C53.8827 26.9867 53.9427 26.74 53.9427 26.46V19.56H56.5027V30H53.9427V28.26ZM59.4605 30V19.56H62.0205V21.72H62.1205C62.1871 21.44 62.2871 21.1733 62.4205 20.92C62.5671 20.6533 62.7538 20.42 62.9805 20.22C63.2071 20.02 63.4738 19.86 63.7805 19.74C64.1005 19.62 64.4671 19.56 64.8805 19.56H65.4405V21.98H64.6405C63.7738 21.98 63.1205 22.1067 62.6805 22.36C62.2405 22.6133 62.0205 23.0267 62.0205 23.6V30H59.4605ZM71.4344 30.24C70.661 30.24 69.9677 30.1133 69.3544 29.86C68.7544 29.5933 68.241 29.2267 67.8144 28.76C67.401 28.28 67.081 27.7067 66.8544 27.04C66.6277 26.36 66.5144 25.6 66.5144 24.76C66.5144 23.9333 66.621 23.1867 66.8344 22.52C67.061 21.8533 67.381 21.2867 67.7944 20.82C68.2077 20.34 68.7144 19.9733 69.3144 19.72C69.9144 19.4533 70.5944 19.32 71.3544 19.32C72.1677 19.32 72.8744 19.46 73.4744 19.74C74.0744 20.02 74.5677 20.4 74.9544 20.88C75.341 21.36 75.6277 21.92 75.8144 22.56C76.0144 23.1867 76.1144 23.86 76.1144 24.58V25.42H69.1744V25.68C69.1744 26.44 69.3877 27.0533 69.8144 27.52C70.241 27.9733 70.8744 28.2 71.7144 28.2C72.3544 28.2 72.8744 28.0667 73.2744 27.8C73.6877 27.5333 74.0544 27.1933 74.3744 26.78L75.7544 28.32C75.3277 28.92 74.741 29.3933 73.9944 29.74C73.261 30.0733 72.4077 30.24 71.4344 30.24ZM71.3944 21.24C70.7144 21.24 70.1744 21.4667 69.7744 21.92C69.3744 22.3733 69.1744 22.96 69.1744 23.68V23.84H73.4544V23.66C73.4544 22.94 73.2744 22.36 72.9144 21.92C72.5677 21.4667 72.061 21.24 71.3944 21.24ZM88.7333 18.38V30H86.0933V18.38H82.1333V16.04H92.6933V18.38H88.7333ZM100.017 28.26H99.9169C99.8235 28.5267 99.6969 28.78 99.5369 29.02C99.3902 29.2467 99.1969 29.4533 98.9569 29.64C98.7302 29.8267 98.4502 29.9733 98.1169 30.08C97.7969 30.1867 97.4235 30.24 96.9969 30.24C95.9169 30.24 95.0902 29.8867 94.5169 29.18C93.9435 28.4733 93.6569 27.4667 93.6569 26.16V19.56H96.2169V25.9C96.2169 26.62 96.3569 27.1733 96.6369 27.56C96.9169 27.9333 97.3635 28.12 97.9769 28.12C98.2302 28.12 98.4769 28.0867 98.7169 28.02C98.9702 27.9533 99.1902 27.8533 99.3769 27.72C99.5635 27.5733 99.7169 27.4 99.8369 27.2C99.9569 26.9867 100.017 26.74 100.017 26.46V19.56H102.577V30H100.017V28.26ZM108.795 30C107.915 30 107.241 29.7733 106.775 29.32C106.321 28.8533 106.095 28.1933 106.095 27.34V21.6H104.555V19.56H105.355C105.741 19.56 106.001 19.4733 106.135 19.3C106.281 19.1133 106.355 18.84 106.355 18.48V16.7H108.655V19.56H110.795V21.6H108.655V27.96H110.635V30H108.795ZM117.077 30.24C116.33 30.24 115.657 30.1133 115.057 29.86C114.47 29.6067 113.964 29.24 113.537 28.76C113.124 28.28 112.804 27.7067 112.577 27.04C112.35 26.36 112.237 25.6 112.237 24.76C112.237 23.92 112.35 23.1667 112.577 22.5C112.804 21.8333 113.124 21.2667 113.537 20.8C113.964 20.32 114.47 19.9533 115.057 19.7C115.657 19.4467 116.33 19.32 117.077 19.32C117.824 19.32 118.497 19.4467 119.097 19.7C119.697 19.9533 120.204 20.32 120.617 20.8C121.044 21.2667 121.37 21.8333 121.597 22.5C121.824 23.1667 121.937 23.92 121.937 24.76C121.937 25.6 121.824 26.36 121.597 27.04C121.37 27.7067 121.044 28.28 120.617 28.76C120.204 29.24 119.697 29.6067 119.097 29.86C118.497 30.1133 117.824 30.24 117.077 30.24ZM117.077 28.18C117.757 28.18 118.29 27.9733 118.677 27.56C119.064 27.1467 119.257 26.54 119.257 25.74V23.8C119.257 23.0133 119.064 22.4133 118.677 22C118.29 21.5867 117.757 21.38 117.077 21.38C116.41 21.38 115.884 21.5867 115.497 22C115.11 22.4133 114.917 23.0133 114.917 23.8V25.74C114.917 26.54 115.11 27.1467 115.497 27.56C115.884 27.9733 116.41 28.18 117.077 28.18ZM124.207 30V19.56H126.767V21.72H126.867C126.933 21.44 127.033 21.1733 127.167 20.92C127.313 20.6533 127.5 20.42 127.727 20.22C127.953 20.02 128.22 19.86 128.527 19.74C128.847 19.62 129.213 19.56 129.627 19.56H130.187V21.98H129.387C128.52 21.98 127.867 22.1067 127.427 22.36C126.987 22.6133 126.767 23.0267 126.767 23.6V30H124.207ZM133.338 18.04C132.805 18.04 132.418 17.92 132.178 17.68C131.951 17.44 131.838 17.1333 131.838 16.76V16.36C131.838 15.9867 131.951 15.68 132.178 15.44C132.418 15.2 132.805 15.08 133.338 15.08C133.858 15.08 134.238 15.2 134.478 15.44C134.718 15.68 134.838 15.9867 134.838 16.36V16.76C134.838 17.1333 134.718 17.44 134.478 17.68C134.238 17.92 133.858 18.04 133.338 18.04ZM132.058 19.56H134.618V30H132.058V19.56ZM145.265 30C144.705 30 144.259 29.84 143.925 29.52C143.605 29.1867 143.405 28.7467 143.325 28.2H143.205C143.032 28.88 142.679 29.3933 142.145 29.74C141.612 30.0733 140.952 30.24 140.165 30.24C139.099 30.24 138.279 29.96 137.705 29.4C137.132 28.84 136.845 28.0933 136.845 27.16C136.845 26.08 137.232 25.28 138.005 24.76C138.779 24.2267 139.879 23.96 141.305 23.96H143.085V23.2C143.085 22.6133 142.932 22.16 142.625 21.84C142.319 21.52 141.825 21.36 141.145 21.36C140.545 21.36 140.059 21.4933 139.685 21.76C139.325 22.0133 139.019 22.32 138.765 22.68L137.245 21.32C137.632 20.72 138.145 20.24 138.785 19.88C139.425 19.5067 140.272 19.32 141.325 19.32C142.739 19.32 143.812 19.64 144.545 20.28C145.279 20.92 145.645 21.84 145.645 23.04V27.96H146.685V30H145.265ZM141.025 28.38C141.599 28.38 142.085 28.2533 142.485 28C142.885 27.7467 143.085 27.3733 143.085 26.88V25.5H141.445C140.112 25.5 139.445 25.9267 139.445 26.78V27.12C139.445 27.5467 139.579 27.8667 139.845 28.08C140.125 28.28 140.519 28.38 141.025 28.38ZM151.317 30C150.437 30 149.791 29.78 149.377 29.34C148.964 28.9 148.757 28.28 148.757 27.48V15.2H151.317V27.96H152.697V30H151.317Z" fill="black"/>
</svg>
